<svg xmlns="http://www.w3.org/2000/svg" xmlns:xlink="http://www.w3.org/1999/xlink" width="1500" zoomAndPan="magnify" viewBox="0 0 1125 599.999999" height="800" preserveAspectRatio="xMidYMid meet" version="1.0"><defs><g><g id="id1"/></g><clipPath id="id2"><path d="M 29.054688 169.636719 L 399.554688 169.636719 L 399.554688 401 L 29.054688 401 Z M 29.054688 169.636719 " clip-rule="nonzero"/></clipPath><clipPath id="id3"><path d="M 122 238 L 335 238 L 335 521.386719 L 122 521.386719 Z M 122 238 " clip-rule="nonzero"/></clipPath></defs><rect x="-112.5" width="1350" fill="rgb(100%, 100%, 100%)" y="-60" height="719.999999" fill-opacity="1"/><rect x="-112.5" width="1350" fill="rgb(59.999084%, 88.62915%, 39.608765%)" y="-60" height="719.999999" fill-opacity="1"/><rect x="-112.5" width="1350" fill="rgb(100%, 100%, 100%)" y="-60" height="719.999999" fill-opacity="1"/><rect x="-112.5" width="1350" fill="rgb(59.999084%, 88.62915%, 39.608765%)" y="-60" height="719.999999" fill-opacity="1"/><g clip-path="url(#id2)"><path fill="rgb(43.528748%, 56.858826%, 23.919678%)" d="M 242.855469 390.203125 C 242.855469 390.203125 172.324219 392.464844 106.316406 335.722656 C 40.304688 278.980469 30.140625 171.519531 29.386719 172.273438 C 28.632812 173.027344 129.28125 152.816406 202.945312 219.851562 C 276.613281 286.886719 242.855469 390.203125 242.855469 390.203125 Z M 379.769531 318.773438 C 400.851562 276.71875 399.09375 222.992188 399.09375 222.992188 C 399.09375 222.992188 331.203125 222.488281 293.554688 269.0625 C 244.863281 329.066406 264.941406 400.371094 264.941406 400.371094 C 264.941406 400.371094 349.273438 379.53125 379.769531 318.773438 Z M 379.769531 318.773438 " fill-opacity="1" fill-rule="nonzero"/></g><g clip-path="url(#id3)"><path fill="rgb(74.899292%, 87.838745%, 38.819885%)" d="M 332.582031 284.378906 C 330.199219 281.867188 326.183594 281.867188 323.671875 284.25 C 283.890625 323.417969 264.3125 369.992188 254.777344 417.445312 C 244.234375 363.714844 214.742188 282.117188 132.042969 239.183594 C 128.902344 237.554688 125.140625 238.808594 123.632812 241.820312 C 122 244.832031 123.257812 248.726562 126.269531 250.230469 C 241.722656 310.238281 247.746094 450.960938 248 467.910156 C 246.742188 483.851562 246.367188 499.546875 246.242188 514.859375 C 246.242188 518.375 249.003906 521.136719 252.515625 521.136719 C 255.90625 521.136719 258.792969 518.375 258.792969 514.859375 C 258.917969 500.550781 259.292969 485.988281 260.296875 471.175781 C 260.421875 470.671875 260.546875 470.167969 260.546875 469.667969 L 260.546875 468.285156 C 265.316406 406.898438 281.507812 343.128906 332.457031 293.039062 C 334.96875 290.78125 334.96875 286.886719 332.582031 284.378906 Z M 332.582031 284.378906 " fill-opacity="1" fill-rule="nonzero"/></g><g fill="rgb(100%, 100%, 100%)" fill-opacity="1"><g transform="translate(471.484785, 328.382499)"><g><path d="M 116.328125 -118.46875 C 122.785156 -115.289062 126.015625 -111.789062 126.015625 -107.96875 C 126.015625 -106.21875 125.191406 -103.59375 123.546875 -100.09375 L 78.265625 -8.203125 C 77.054688 -5.796875 75.222656 -3.851562 72.765625 -2.375 C 70.304688 -0.90625 67.765625 -0.171875 65.140625 -0.171875 L 63.5 -0.171875 C 60.757812 -0.171875 58.160156 -0.90625 55.703125 -2.375 C 53.242188 -3.851562 51.410156 -5.796875 50.203125 -8.203125 L 4.921875 -100.09375 C 3.285156 -103.59375 2.46875 -106.21875 2.46875 -107.96875 C 2.46875 -111.789062 5.691406 -115.289062 12.140625 -118.46875 C 15.753906 -120.320312 18.515625 -121.25 20.421875 -121.25 C 22.335938 -121.25 23.785156 -121.03125 24.765625 -120.59375 C 25.753906 -120.15625 26.6875 -119.390625 27.5625 -118.296875 C 28.550781 -116.984375 29.453125 -115.535156 30.265625 -113.953125 C 31.085938 -112.367188 33.191406 -107.828125 36.578125 -100.328125 C 39.972656 -92.835938 43.613281 -84.878906 47.5 -76.453125 C 51.382812 -68.035156 55.046875 -60.078125 58.484375 -52.578125 C 61.929688 -45.085938 63.875 -40.90625 64.3125 -40.03125 L 97.140625 -111.90625 C 98.015625 -113.976562 98.78125 -115.617188 99.4375 -116.828125 C 101.40625 -119.773438 103.8125 -121.25 106.65625 -121.25 C 109.5 -121.25 112.722656 -120.320312 116.328125 -118.46875 Z M 116.328125 -118.46875 "/></g></g></g><g fill="rgb(100%, 100%, 100%)" fill-opacity="1"><g transform="translate(599.950362, 328.382499)"><g><path d="M 6.5625 -72.03125 C 6.5625 -74.539062 6.644531 -76.425781 6.8125 -77.6875 C 6.976562 -78.945312 7.441406 -80.398438 8.203125 -82.046875 C 9.734375 -84.890625 14 -86.3125 21 -86.3125 C 26.25 -86.3125 29.96875 -85.378906 32.15625 -83.515625 C 34.019531 -81.984375 35.003906 -79.628906 35.109375 -76.453125 C 35.222656 -75.359375 35.28125 -73.773438 35.28125 -71.703125 L 35.28125 -14.28125 C 35.28125 -11.757812 35.195312 -9.867188 35.03125 -8.609375 C 34.863281 -7.359375 34.34375 -5.910156 33.46875 -4.265625 C 32.050781 -1.421875 27.84375 0 20.84375 0 C 13.945312 0 9.734375 -1.476562 8.203125 -4.4375 C 7.441406 -6.070312 6.976562 -7.488281 6.8125 -8.6875 C 6.644531 -9.894531 6.5625 -11.8125 6.5625 -14.4375 Z M 33.546875 -102.46875 C 32.734375 -100.882812 31.285156 -99.765625 29.203125 -99.109375 C 27.128906 -98.453125 24.367188 -98.125 20.921875 -98.125 C 17.472656 -98.125 14.707031 -98.453125 12.625 -99.109375 C 10.550781 -99.765625 9.101562 -100.910156 8.28125 -102.546875 C 7.46875 -104.191406 6.976562 -105.640625 6.8125 -106.890625 C 6.644531 -108.148438 6.5625 -110.035156 6.5625 -112.546875 C 6.5625 -115.066406 6.644531 -116.957031 6.8125 -118.21875 C 6.976562 -119.476562 7.441406 -120.875 8.203125 -122.40625 C 9.734375 -125.351562 14 -126.828125 21 -126.828125 C 27.894531 -126.828125 32.050781 -125.351562 33.46875 -122.40625 C 34.34375 -120.757812 34.863281 -119.304688 35.03125 -118.046875 C 35.195312 -116.796875 35.28125 -114.910156 35.28125 -112.390625 C 35.28125 -109.878906 35.195312 -107.992188 35.03125 -106.734375 C 34.863281 -105.472656 34.367188 -104.050781 33.546875 -102.46875 Z M 33.546875 -102.46875 "/></g></g></g><g fill="rgb(100%, 100%, 100%)" fill-opacity="1"><g transform="translate(641.787811, 328.382499)"><g><path d="M 93.6875 -84.5 C 99.375 -81.101562 102.21875 -77.492188 102.21875 -73.671875 C 102.21875 -71.484375 101.125 -68.472656 98.9375 -64.640625 L 64.96875 -6.40625 C 63.875 -4.539062 62.125 -2.867188 59.71875 -1.390625 C 57.3125 0.0859375 54.929688 0.828125 52.578125 0.828125 C 50.234375 0.828125 47.992188 0.253906 45.859375 -0.890625 C 43.722656 -2.046875 42.21875 -3.226562 41.34375 -4.4375 L 39.875 -6.234375 L 5.75 -64.640625 C 3.5625 -68.253906 2.46875 -71.207031 2.46875 -73.5 C 2.46875 -77.4375 5.3125 -81.101562 11 -84.5 C 15.15625 -86.90625 18.4375 -88.109375 20.84375 -88.109375 C 23.25 -88.109375 25.132812 -87.367188 26.5 -85.890625 C 27.863281 -84.421875 29.3125 -82.207031 30.84375 -79.25 L 52.34375 -37.90625 L 73.828125 -79.25 C 75.035156 -81.332031 75.9375 -82.835938 76.53125 -83.765625 C 77.132812 -84.691406 78.09375 -85.617188 79.40625 -86.546875 C 80.71875 -87.484375 82.46875 -87.953125 84.65625 -87.953125 C 86.851562 -87.953125 89.863281 -86.800781 93.6875 -84.5 Z M 93.6875 -84.5 "/></g></g></g><g fill="rgb(100%, 100%, 100%)" fill-opacity="1"><g transform="translate(746.463458, 328.382499)"><g><path d="M 62.671875 -77.28125 C 63.328125 -83.40625 67.648438 -86.46875 75.640625 -86.46875 C 79.910156 -86.46875 83.082031 -86.140625 85.15625 -85.484375 C 87.238281 -84.828125 88.6875 -83.675781 89.5 -82.03125 C 90.320312 -80.394531 90.816406 -78.945312 90.984375 -77.6875 C 91.148438 -76.425781 91.234375 -74.539062 91.234375 -72.03125 L 91.234375 -14.609375 C 91.234375 -12.085938 91.148438 -10.195312 90.984375 -8.9375 C 90.816406 -7.6875 90.351562 -6.238281 89.59375 -4.59375 C 88.0625 -1.75 84.3125 -0.328125 78.34375 -0.328125 C 72.382812 -0.328125 68.390625 -1.066406 66.359375 -2.546875 C 64.335938 -4.023438 63.164062 -6.1875 62.84375 -9.03125 C 58.789062 -3.226562 52.035156 -0.328125 42.578125 -0.328125 C 33.117188 -0.328125 24.34375 -4.644531 16.25 -13.28125 C 8.15625 -21.925781 4.109375 -31.960938 4.109375 -43.390625 C 4.109375 -54.828125 8.179688 -64.835938 16.328125 -73.421875 C 24.472656 -82.015625 33.414062 -86.3125 43.15625 -86.3125 C 46.875 -86.3125 50.265625 -85.65625 53.328125 -84.34375 C 56.390625 -83.03125 58.519531 -81.796875 59.71875 -80.640625 C 60.925781 -79.492188 61.910156 -78.375 62.671875 -77.28125 Z M 32.8125 -43.140625 C 32.8125 -39.535156 34.234375 -36.285156 37.078125 -33.390625 C 39.921875 -30.492188 43.363281 -29.046875 47.40625 -29.046875 C 51.457031 -29.046875 54.820312 -30.519531 57.5 -33.46875 C 60.1875 -36.425781 61.53125 -39.679688 61.53125 -43.234375 C 61.53125 -46.785156 60.242188 -50.09375 57.671875 -53.15625 C 55.097656 -56.21875 51.648438 -57.75 47.328125 -57.75 C 43.015625 -57.75 39.515625 -56.21875 36.828125 -53.15625 C 34.148438 -50.09375 32.8125 -46.753906 32.8125 -43.140625 Z M 32.8125 -43.140625 "/></g></g></g><g fill="rgb(100%, 100%, 100%)" fill-opacity="1"><g transform="translate(844.248242, 328.382499)"><g/></g></g><g fill="rgb(100%, 100%, 100%)" fill-opacity="1"><g transform="translate(885.757574, 328.382499)"><g><path d="M 89.921875 -53.5625 C 89.921875 -46.84375 88.25 -41.867188 84.90625 -38.640625 C 81.570312 -35.410156 77.878906 -33.796875 73.828125 -33.796875 L 34.953125 -33.796875 C 34.953125 -30.734375 36.753906 -28.160156 40.359375 -26.078125 C 43.972656 -24.003906 47.582031 -22.96875 51.1875 -22.96875 C 57.53125 -22.96875 62.507812 -23.625 66.125 -24.9375 L 67.921875 -25.59375 C 70.546875 -26.800781 72.734375 -27.40625 74.484375 -27.40625 C 77.984375 -27.40625 80.992188 -24.941406 83.515625 -20.015625 C 84.941406 -17.066406 85.65625 -14.550781 85.65625 -12.46875 C 85.65625 -2.726562 74.003906 2.140625 50.703125 2.140625 C 42.609375 2.140625 35.414062 0.742188 29.125 -2.046875 C 22.832031 -4.835938 17.9375 -8.53125 14.4375 -13.125 C 7.550781 -21.988281 4.109375 -31.890625 4.109375 -42.828125 C 4.109375 -56.609375 8.5625 -67.628906 17.46875 -75.890625 C 26.382812 -84.148438 37.515625 -88.28125 50.859375 -88.28125 C 66.066406 -88.28125 77.226562 -82.914062 84.34375 -72.1875 C 88.0625 -66.5 89.921875 -60.289062 89.921875 -53.5625 Z M 55.296875 -48.734375 C 59.453125 -48.734375 61.53125 -50.484375 61.53125 -53.984375 C 61.53125 -56.492188 60.570312 -58.515625 58.65625 -60.046875 C 56.738281 -61.578125 54.003906 -62.34375 50.453125 -62.34375 C 46.898438 -62.34375 43.375 -60.894531 39.875 -58 C 36.375 -55.101562 34.625 -52.015625 34.625 -48.734375 Z M 55.296875 -48.734375 "/></g></g></g><g fill="rgb(100%, 100%, 100%)" fill-opacity="1"><g transform="translate(979.768793, 328.382499)"><g><path d="M 6.5625 -112.71875 C 6.5625 -115.238281 6.644531 -117.125 6.8125 -118.375 C 6.976562 -119.632812 7.441406 -121.085938 8.203125 -122.734375 C 9.734375 -125.679688 14 -127.15625 21 -127.15625 C 27.675781 -127.15625 31.832031 -125.679688 33.46875 -122.734375 C 34.34375 -121.085938 34.863281 -119.609375 35.03125 -118.296875 C 35.195312 -116.984375 35.28125 -115.070312 35.28125 -112.5625 L 35.28125 -36.59375 C 35.28125 -32.65625 35.609375 -30.164062 36.265625 -29.125 C 36.921875 -28.082031 38.367188 -27.5625 40.609375 -27.5625 C 42.847656 -27.5625 44.347656 -27.476562 45.109375 -27.3125 C 45.878906 -27.15625 46.8125 -26.691406 47.90625 -25.921875 C 50.09375 -24.503906 51.1875 -20.625 51.1875 -14.28125 C 51.1875 -7.382812 50.09375 -3.171875 47.90625 -1.640625 C 45.0625 0.328125 38.28125 0.65625 27.5625 -0.65625 C 19.144531 -1.75 13.675781 -4.539062 11.15625 -9.03125 C 8.09375 -14.382812 6.5625 -22.914062 6.5625 -34.625 Z M 6.5625 -112.71875 "/></g></g></g><g fill="rgb(100%, 100%, 100%)" fill-opacity="1"><g transform="translate(1033.416137, 328.382499)"><g/></g></g><g fill="rgb(100%, 100%, 100%)" fill-opacity="1"><g transform="translate(445.393101, 474.192162)"><g><path d="M 116.328125 -118.46875 C 122.785156 -115.289062 126.015625 -111.789062 126.015625 -107.96875 C 126.015625 -106.21875 125.191406 -103.59375 123.546875 -100.09375 L 78.265625 -8.203125 C 77.054688 -5.796875 75.222656 -3.851562 72.765625 -2.375 C 70.304688 -0.90625 67.765625 -0.171875 65.140625 -0.171875 L 63.5 -0.171875 C 60.757812 -0.171875 58.160156 -0.90625 55.703125 -2.375 C 53.242188 -3.851562 51.410156 -5.796875 50.203125 -8.203125 L 4.921875 -100.09375 C 3.285156 -103.59375 2.46875 -106.21875 2.46875 -107.96875 C 2.46875 -111.789062 5.691406 -115.289062 12.140625 -118.46875 C 15.753906 -120.320312 18.515625 -121.25 20.421875 -121.25 C 22.335938 -121.25 23.785156 -121.03125 24.765625 -120.59375 C 25.753906 -120.15625 26.6875 -119.390625 27.5625 -118.296875 C 28.550781 -116.984375 29.453125 -115.535156 30.265625 -113.953125 C 31.085938 -112.367188 33.191406 -107.828125 36.578125 -100.328125 C 39.972656 -92.835938 43.613281 -84.878906 47.5 -76.453125 C 51.382812 -68.035156 55.046875 -60.078125 58.484375 -52.578125 C 61.929688 -45.085938 63.875 -40.90625 64.3125 -40.03125 L 97.140625 -111.90625 C 98.015625 -113.976562 98.78125 -115.617188 99.4375 -116.828125 C 101.40625 -119.773438 103.8125 -121.25 106.65625 -121.25 C 109.5 -121.25 112.722656 -120.320312 116.328125 -118.46875 Z M 116.328125 -118.46875 "/></g></g></g><g fill="rgb(100%, 100%, 100%)" fill-opacity="1"><g transform="translate(573.858677, 474.192162)"><g><path d="M 89.921875 -53.5625 C 89.921875 -46.84375 88.25 -41.867188 84.90625 -38.640625 C 81.570312 -35.410156 77.878906 -33.796875 73.828125 -33.796875 L 34.953125 -33.796875 C 34.953125 -30.734375 36.753906 -28.160156 40.359375 -26.078125 C 43.972656 -24.003906 47.582031 -22.96875 51.1875 -22.96875 C 57.53125 -22.96875 62.507812 -23.625 66.125 -24.9375 L 67.921875 -25.59375 C 70.546875 -26.800781 72.734375 -27.40625 74.484375 -27.40625 C 77.984375 -27.40625 80.992188 -24.941406 83.515625 -20.015625 C 84.941406 -17.066406 85.65625 -14.550781 85.65625 -12.46875 C 85.65625 -2.726562 74.003906 2.140625 50.703125 2.140625 C 42.609375 2.140625 35.414062 0.742188 29.125 -2.046875 C 22.832031 -4.835938 17.9375 -8.53125 14.4375 -13.125 C 7.550781 -21.988281 4.109375 -31.890625 4.109375 -42.828125 C 4.109375 -56.609375 8.5625 -67.628906 17.46875 -75.890625 C 26.382812 -84.148438 37.515625 -88.28125 50.859375 -88.28125 C 66.066406 -88.28125 77.226562 -82.914062 84.34375 -72.1875 C 88.0625 -66.5 89.921875 -60.289062 89.921875 -53.5625 Z M 55.296875 -48.734375 C 59.453125 -48.734375 61.53125 -50.484375 61.53125 -53.984375 C 61.53125 -56.492188 60.570312 -58.515625 58.65625 -60.046875 C 56.738281 -61.578125 54.003906 -62.34375 50.453125 -62.34375 C 46.898438 -62.34375 43.375 -60.894531 39.875 -58 C 36.375 -55.101562 34.625 -52.015625 34.625 -48.734375 Z M 55.296875 -48.734375 "/></g></g></g><g fill="rgb(100%, 100%, 100%)" fill-opacity="1"><g transform="translate(667.869886, 474.192162)"><g><path d="M 61.359375 -10.828125 C 57.203125 -5.359375 50.582031 -2.625 41.5 -2.625 C 32.425781 -2.625 23.925781 -6.804688 16 -15.171875 C 8.070312 -23.546875 4.109375 -33.3125 4.109375 -44.46875 C 4.109375 -55.625 8.097656 -65.410156 16.078125 -73.828125 C 24.066406 -82.253906 32.816406 -86.46875 42.328125 -86.46875 C 46.046875 -86.46875 49.4375 -85.785156 52.5 -84.421875 C 55.5625 -83.054688 57.664062 -81.796875 58.8125 -80.640625 C 59.96875 -79.492188 60.875 -78.425781 61.53125 -77.4375 C 61.851562 -80.507812 62.972656 -82.835938 64.890625 -84.421875 C 66.804688 -86.003906 69.894531 -86.796875 74.15625 -86.796875 C 78.425781 -86.796875 81.546875 -86.46875 83.515625 -85.8125 C 85.484375 -85.15625 86.878906 -84.03125 87.703125 -82.4375 C 88.523438 -80.851562 89.015625 -79.457031 89.171875 -78.25 C 89.335938 -77.050781 89.421875 -75.195312 89.421875 -72.6875 L 89.421875 -4.765625 C 89.421875 7.816406 85.046875 17.960938 76.296875 25.671875 C 67.546875 33.390625 57.703125 37.25 46.765625 37.25 C 38.453125 37.25 30.519531 35.222656 22.96875 31.171875 C 15.425781 27.128906 11.65625 23.46875 11.65625 20.1875 C 11.65625 15.914062 13.296875 12.140625 16.578125 8.859375 C 18.648438 6.566406 20.257812 4.984375 21.40625 4.109375 C 22.5625 3.234375 23.90625 2.796875 25.4375 2.796875 C 26.96875 2.796875 28.550781 3.453125 30.1875 4.765625 C 35.4375 8.804688 41.125 10.828125 47.25 10.828125 C 51.40625 10.828125 54.796875 9.1875 57.421875 5.90625 C 60.046875 2.625 61.359375 -1.3125 61.359375 -5.90625 Z M 32.15625 -44.375 C 32.15625 -40.820312 33.550781 -37.625 36.34375 -34.78125 C 39.132812 -31.9375 42.523438 -30.515625 46.515625 -30.515625 C 50.503906 -30.515625 53.8125 -31.960938 56.4375 -34.859375 C 59.0625 -37.765625 60.375 -40.9375 60.375 -44.375 C 60.375 -47.820312 59.113281 -51.050781 56.59375 -54.0625 C 54.082031 -57.070312 50.691406 -58.578125 46.421875 -58.578125 C 42.160156 -58.578125 38.71875 -57.097656 36.09375 -54.140625 C 33.46875 -51.191406 32.15625 -47.9375 32.15625 -44.375 Z M 32.15625 -44.375 "/></g></g></g><g fill="rgb(100%, 100%, 100%)" fill-opacity="1"><g transform="translate(763.849933, 474.192162)"><g><path d="M 62.671875 -77.28125 C 63.328125 -83.40625 67.648438 -86.46875 75.640625 -86.46875 C 79.910156 -86.46875 83.082031 -86.140625 85.15625 -85.484375 C 87.238281 -84.828125 88.6875 -83.675781 89.5 -82.03125 C 90.320312 -80.394531 90.816406 -78.945312 90.984375 -77.6875 C 91.148438 -76.425781 91.234375 -74.539062 91.234375 -72.03125 L 91.234375 -14.609375 C 91.234375 -12.085938 91.148438 -10.195312 90.984375 -8.9375 C 90.816406 -7.6875 90.351562 -6.238281 89.59375 -4.59375 C 88.0625 -1.75 84.3125 -0.328125 78.34375 -0.328125 C 72.382812 -0.328125 68.390625 -1.066406 66.359375 -2.546875 C 64.335938 -4.023438 63.164062 -6.1875 62.84375 -9.03125 C 58.789062 -3.226562 52.035156 -0.328125 42.578125 -0.328125 C 33.117188 -0.328125 24.34375 -4.644531 16.25 -13.28125 C 8.15625 -21.925781 4.109375 -31.960938 4.109375 -43.390625 C 4.109375 -54.828125 8.179688 -64.835938 16.328125 -73.421875 C 24.472656 -82.015625 33.414062 -86.3125 43.15625 -86.3125 C 46.875 -86.3125 50.265625 -85.65625 53.328125 -84.34375 C 56.390625 -83.03125 58.519531 -81.796875 59.71875 -80.640625 C 60.925781 -79.492188 61.910156 -78.375 62.671875 -77.28125 Z M 32.8125 -43.140625 C 32.8125 -39.535156 34.234375 -36.285156 37.078125 -33.390625 C 39.921875 -30.492188 43.363281 -29.046875 47.40625 -29.046875 C 51.457031 -29.046875 54.820312 -30.519531 57.5 -33.46875 C 60.1875 -36.425781 61.53125 -39.679688 61.53125 -43.234375 C 61.53125 -46.785156 60.242188 -50.09375 57.671875 -53.15625 C 55.097656 -56.21875 51.648438 -57.75 47.328125 -57.75 C 43.015625 -57.75 39.515625 -56.21875 36.828125 -53.15625 C 34.148438 -50.09375 32.8125 -46.753906 32.8125 -43.140625 Z M 32.8125 -43.140625 "/></g></g></g><g fill="rgb(100%, 100%, 100%)" fill-opacity="1"><g transform="translate(861.634717, 474.192162)"><g><path d="M 54.640625 -86.46875 C 65.578125 -86.46875 74.679688 -82.28125 81.953125 -73.90625 C 89.234375 -65.539062 92.875 -55.34375 92.875 -43.3125 L 92.875 -14.4375 C 92.875 -11.925781 92.789062 -10.039062 92.625 -8.78125 C 92.457031 -7.519531 91.992188 -6.125 91.234375 -4.59375 C 89.703125 -1.644531 85.429688 -0.171875 78.421875 -0.171875 C 70.660156 -0.171875 66.175781 -2.191406 64.96875 -6.234375 C 64.3125 -8.097656 63.984375 -10.890625 63.984375 -14.609375 L 63.984375 -43.484375 C 63.984375 -47.960938 62.695312 -51.457031 60.125 -53.96875 C 57.5625 -56.488281 54.117188 -57.75 49.796875 -57.75 C 45.472656 -57.75 41.972656 -56.4375 39.296875 -53.8125 C 36.617188 -51.1875 35.28125 -47.742188 35.28125 -43.484375 L 35.28125 -14.4375 C 35.28125 -11.925781 35.195312 -10.039062 35.03125 -8.78125 C 34.863281 -7.519531 34.34375 -6.125 33.46875 -4.59375 C 32.050781 -1.644531 27.84375 -0.171875 20.84375 -0.171875 C 13.945312 -0.171875 9.734375 -1.644531 8.203125 -4.59375 C 7.441406 -6.238281 6.976562 -7.6875 6.8125 -8.9375 C 6.644531 -10.195312 6.5625 -12.085938 6.5625 -14.609375 L 6.5625 -72.6875 C 6.5625 -75.09375 6.644531 -76.921875 6.8125 -78.171875 C 6.976562 -79.429688 7.5 -80.832031 8.375 -82.375 C 9.90625 -85.101562 14.113281 -86.46875 21 -86.46875 C 27.675781 -86.46875 31.78125 -85.210938 33.3125 -82.703125 C 34.40625 -80.835938 34.953125 -78.59375 34.953125 -75.96875 C 35.390625 -76.726562 36.375 -77.816406 37.90625 -79.234375 C 39.4375 -80.660156 40.910156 -81.816406 42.328125 -82.703125 C 46.046875 -85.210938 50.148438 -86.46875 54.640625 -86.46875 Z M 54.640625 -86.46875 "/></g></g></g><g fill="rgb(100%, 100%, 100%)" fill-opacity="1"><g transform="translate(961.06019, 474.192162)"><g><path d="M 4.109375 -43.15625 C 4.109375 -56.28125 8.703125 -67.109375 17.890625 -75.640625 C 27.078125 -84.171875 37.578125 -88.4375 49.390625 -88.4375 C 61.203125 -88.4375 71.644531 -84.195312 80.71875 -75.71875 C 89.800781 -67.238281 94.34375 -56.4375 94.34375 -43.3125 C 94.34375 -34.238281 91.988281 -26.171875 87.28125 -19.109375 C 82.582031 -12.054688 76.867188 -6.859375 70.140625 -3.515625 C 63.410156 -0.179688 56.4375 1.484375 49.21875 1.484375 C 42 1.484375 35 -0.289062 28.21875 -3.84375 C 21.4375 -7.40625 15.722656 -12.660156 11.078125 -19.609375 C 6.429688 -26.554688 4.109375 -34.40625 4.109375 -43.15625 Z M 38.390625 -31.421875 C 41.890625 -28.742188 45.441406 -27.40625 49.046875 -27.40625 C 52.660156 -27.40625 56.269531 -28.769531 59.875 -31.5 C 63.488281 -34.238281 65.296875 -38.285156 65.296875 -43.640625 C 65.296875 -49.003906 63.597656 -53 60.203125 -55.625 C 56.816406 -58.25 53.15625 -59.5625 49.21875 -59.5625 C 45.28125 -59.5625 41.613281 -58.191406 38.21875 -55.453125 C 34.832031 -52.722656 33.140625 -48.703125 33.140625 -43.390625 C 33.140625 -38.085938 34.890625 -34.097656 38.390625 -31.421875 Z M 38.390625 -31.421875 "/></g></g></g></svg>